# xmcd
#
# Track frame offsets:
# 150
# 14807
# 25802
# 36822
# 51007
# 64247
# 77567
# 91242
# 103402
# 112055
# 128780
#
# Disc length: 1959 seconds
#
# Revision: 1
# Processed by: cddbd v1.4PL0 Copyright (c) Steve Scherf et al.
# Submitted via: CedeCatalogueitor 2.5 http://usuarios.lycos.es/kakasboy
#
DISCID=9307a50b
DTITLE=Otis Redding - Remember Me
DYEAR=1900
DGENRE=
TTITLE0=Trick Or Treat
TTITLE1=Loving By The Pound
TTITLE2=Remember Me
TTITLE3=Cupid
TTITLE4=The Boston Monkey
TTITLE5=You Got Good Loving
TTITLE6=I'm Coming Home
TTITLE7=(Sittin' On) The Dock Of The Bay
TTITLE8=Respect
TTITLE9=I've Got Dreams To Remember
TTITLE10=Try A Little Tenderness
EXTD=
EXTT0=
EXTT1=
EXTT2=
EXTT3=
EXTT4=
EXTT5=
EXTT6=
EXTT7=
EXTT8=
EXTT9=
EXTT10=
PLAYORDER=
